<svg viewBox="0 0 32 32" xmlns="http://www.w3.org/2000/svg">
	<style>
		@media (prefers-color-scheme: dark) {
			path {
				fill: white;
			}
		}
	</style>
	<path
		d="M16.112,6.214c-5.292,6.978 -5.262,15.893 0.069,19.913c1.401,1.056 3.028,1.669 4.763,1.872c-4.92,3.996 -10.587,5.236 -14.414,2.633c-5.248,-3.569 -5.047,-13.013 0.449,-21.094c4.59,-6.749 11.42,-10.412 16.604,-9.359c-2.738,1.211 -5.367,3.261 -7.471,6.035Zm6.955,8.912c-2.472,2.335 -5.297,3.888 -7.682,4.405c1.408,5.034 6.822,5.421 6.822,5.421c-0,-0 3.222,-0.741 5.655,-6.207c2.003,-4.502 1.828,-9.153 -0.191,-11.52c-0.168,2.288 -1.816,5.266 -4.604,7.901Z" />
</svg>