<svg width="32" height="32" viewBox="0 0 32 32" fill="none" xmlns="http://www.w3.org/2000/svg">
<g clip-path="url(#clip0_918_2152)">
<path fill-rule="evenodd" clip-rule="evenodd" d="M21.2736 11.7681C21.2736 13.1173 20.1957 14.202 18.8771 14.202C17.5586 14.202 16.4806 13.1173 16.4806 11.7681C16.4806 10.4189 17.5586 9.33429 18.8771 9.33429C20.1957 9.33429 21.2736 10.4189 21.2736 11.7681ZM16.5859 19.7291C16.5859 21.0783 15.5079 22.163 14.1894 22.163C12.8708 22.163 11.7929 21.0783 11.7929 19.7291C11.7929 18.3799 12.8708 17.2953 14.1894 17.2953C15.5079 17.2953 16.5859 18.3799 16.5859 19.7291ZM4.00159 19.7291C4.00159 14.9791 7.16287 10.982 11.4623 9.77394C11.2346 10.6226 11.1481 11.5017 11.2028 12.3732C8.34583 13.564 6.33751 16.4103 6.33751 19.7291C6.33751 24.1156 9.84793 27.6806 14.1894 27.6806C16.7604 27.6806 19.0412 26.429 20.4722 24.4989C21.553 24.36 22.6067 24.081 23.6086 23.6725C22.0794 27.4235 18.4355 30.0584 14.1894 30.0584C8.56781 30.0584 4.00159 25.4388 4.00159 19.7291ZM12.0586 9.21725C12.0047 9.36325 11.9555 9.5106 11.9108 9.65906C11.7656 10.1422 11.6692 10.6372 11.6216 11.1361C11.6838 10.4839 11.8294 9.83838 12.0586 9.21725C12.0586 9.21725 12.0586 9.21725 12.0586 9.21725ZM11.6255 12.6365C11.6255 12.6365 11.6255 12.6365 11.6255 12.6366C9.12962 13.5633 7.25918 15.8044 6.83055 18.5325C7.25916 15.8044 9.1296 13.5633 11.6255 12.6365ZM24.301 22.9202C24.2463 23.0985 24.1871 23.2748 24.1236 23.4489C22.6309 27.5411 18.7463 30.4584 14.1894 30.4584C8.70737 30.4584 4.19845 26.2364 3.65625 20.8261C4.19842 26.2365 8.70735 30.4585 14.1894 30.4585C18.9403 30.4585 22.9604 27.2875 24.3011 22.9202C24.301 22.9202 24.301 22.9202 24.301 22.9202ZM29.0649 11.7681C29.0649 16.5181 25.9036 20.5152 21.6042 21.7233C21.8319 20.8747 21.9184 19.9956 21.8637 19.1241C24.7207 17.9333 26.729 15.0869 26.729 11.7681C26.729 7.38169 23.2186 3.81668 18.8771 3.81668C16.3061 3.81668 14.0254 5.06821 12.5943 6.99831C11.5135 7.13723 10.4598 7.41623 9.45794 7.82479C10.9872 4.07376 14.631 1.43884 18.8771 1.43884C24.4987 1.43884 29.0649 6.0584 29.0649 11.7681ZM21.0079 22.2801C21.1629 22.248 21.3166 22.2125 21.469 22.1736C25.3815 21.176 28.4289 17.9717 29.2473 13.9428C28.397 18.1287 25.1407 21.4244 21.0079 22.2802C21.0079 22.2801 21.0079 22.2801 21.0079 22.2801ZM8.7655 8.57715C8.92956 8.49521 9.09538 8.41702 9.26282 8.34262C10.387 7.84313 11.5844 7.51491 12.8158 7.37435C14.1679 5.46243 16.3789 4.21668 18.8771 4.21668C22.7355 4.21668 25.9089 7.18818 26.2905 10.996C25.9089 7.18821 22.7354 4.21675 18.8771 4.21675C16.3789 4.21675 14.1679 5.4625 12.8158 7.37442C11.401 7.53592 10.0311 7.94514 8.76547 8.57723C8.76548 8.5772 8.76549 8.57717 8.7655 8.57715ZM21.6137 12.3541C21.3473 13.638 20.2233 14.602 18.8771 14.602C17.4171 14.602 16.2185 13.4682 16.0917 12.0221C16.2184 13.4682 17.4171 14.6021 18.8771 14.6021C20.2233 14.6021 21.3474 13.6381 21.6137 12.3541ZM21.6591 12.0579C21.6687 11.9626 21.6736 11.866 21.6736 11.7682C21.6736 11.7682 21.6736 11.7682 21.6736 11.7681C21.6736 11.866 21.6687 11.9626 21.6591 12.0579ZM16.9273 20.3087C16.6633 21.5958 15.5378 22.563 14.1894 22.563C12.838 22.563 11.7105 21.5916 11.4497 20.3002C11.7105 21.5916 12.838 22.563 14.1894 22.563C15.5378 22.563 16.6634 21.5958 16.9273 20.3087ZM16.9714 20.0189C16.981 19.9236 16.9859 19.827 16.9859 19.7292C16.9859 19.7292 16.9859 19.7291 16.9859 19.7291C16.9859 19.8269 16.981 19.9236 16.9714 20.0189Z" fill="white" fill-opacity="0.564706"/>
</g>
<defs>
<clipPath id="clip0_918_2152">
<rect width="32" height="32" fill="white"/>
</clipPath>
</defs>
</svg>
